<mxfile host="65bd71144e">
    <diagram id="3oVHZ9MEZZkp4lfjrWaU" name="ページ1">
        <mxGraphModel dx="1726" dy="923" grid="1" gridSize="10" guides="1" tooltips="1" connect="1" arrows="1" fold="1" page="1" pageScale="1" pageWidth="827" pageHeight="1169" math="0" shadow="0">
            <root>
                <mxCell id="0"/>
                <mxCell id="1" parent="0"/>
                <mxCell id="2" value="" style="shape=note;whiteSpace=wrap;html=1;backgroundOutline=1;darkOpacity=0.05;strokeWidth=6;size=20;fillColor=none;strokeColor=#ffffff;" parent="1" vertex="1">
                    <mxGeometry x="50" y="40" width="60" height="80" as="geometry"/>
                </mxCell>
                <mxCell id="3" value="" style="endArrow=none;html=1;rounded=0;strokeWidth=6;strokeColor=#ffffff;" parent="1" edge="1">
                    <mxGeometry width="50" height="50" relative="1" as="geometry">
                        <mxPoint x="60" y="90" as="sourcePoint"/>
                        <mxPoint x="100" y="90" as="targetPoint"/>
                    </mxGeometry>
                </mxCell>
                <mxCell id="4" value="" style="endArrow=none;html=1;rounded=0;strokeWidth=6;strokeColor=#ffffff;" parent="1" edge="1">
                    <mxGeometry width="50" height="50" relative="1" as="geometry">
                        <mxPoint x="80" y="110" as="sourcePoint"/>
                        <mxPoint x="80" y="70" as="targetPoint"/>
                    </mxGeometry>
                </mxCell>
            </root>
        </mxGraphModel>
    </diagram>
</mxfile>